<?xml version="1.0" encoding="utf-8"?>
<!-- Svg Vector Icons : http://www.onlinewebfonts.com/icon -->
<!DOCTYPE svg PUBLIC "-//W3C//DTD SVG 1.1//EN" "http://www.w3.org/Graphics/SVG/1.1/DTD/svg11.dtd">
<svg version="1.1" xmlns="http://www.w3.org/2000/svg" xmlns:xlink="http://www.w3.org/1999/xlink" x="0px" y="0px" viewBox="0 0 1000 1000" enable-background="new 0 0 1000 1000" xml:space="preserve">
<metadata> Svg Vector Icons : http://www.onlinewebfonts.com/icon </metadata>
<g><path d="M971.2,27.8C958.7,15.4,942.4,9.1,926,9.1c-16.4,0-32.8,6.2-45.2,18.7L692.5,216.1v-35.7H10v810.5h810.5V308.4h-39.2l190-190C996.3,93.4,996.3,52.8,971.2,27.8L971.2,27.8z M777.8,948.2H52.6V223.1h632.9L351.2,557.3v92.3H440l337.8-337.8V948.2L777.8,948.2z M941.1,88.2L422.3,607h-28.5v-32l517-517c5.4-5.4,11.8-6.2,15.1-6.2c3.3,0,9.7,0.8,15.1,6.2c5.5,5.4,6.3,11.8,6.3,15.1C947.3,76.4,946.5,82.7,941.1,88.2L941.1,88.2z"/></g>
</svg>